<mxfile host="Electron" modified="2023-08-17T20:12:09.116Z" agent="Mozilla/5.0 (Macintosh; Intel Mac OS X 10_15_7) AppleWebKit/537.36 (KHTML, like Gecko) draw.io/21.6.8 Chrome/114.0.5735.289 Electron/25.5.0 Safari/537.36" etag="kt4elaKzP2fnPfrYgq3M" version="21.6.8" type="device">
  <diagram name="Page-1" id="fF1FN79YLsm7chEMJMVR">
    <mxGraphModel dx="954" dy="610" grid="1" gridSize="10" guides="1" tooltips="1" connect="1" arrows="1" fold="1" page="1" pageScale="1" pageWidth="850" pageHeight="1100" math="0" shadow="0">
      <root>
        <mxCell id="0" />
        <mxCell id="1" parent="0" />
        <mxCell id="VM11iJAhRHiVbTBeR8sz-1" value="" style="rounded=0;whiteSpace=wrap;html=1;strokeColor=none;" vertex="1" parent="1">
          <mxGeometry x="150" y="190" width="660" height="240" as="geometry" />
        </mxCell>
        <mxCell id="A4NSrSyly75F6ZysKl9O-4" value="" style="sketch=0;outlineConnect=0;fontColor=#232F3E;gradientColor=none;fillColor=#FFFFFF;strokeColor=none;dashed=0;verticalLabelPosition=bottom;verticalAlign=top;align=center;html=1;fontSize=12;fontStyle=0;aspect=fixed;pointerEvents=1;shape=mxgraph.aws4.generic_database;" parent="1" vertex="1">
          <mxGeometry x="170" y="212" width="60.51" height="80" as="geometry" />
        </mxCell>
        <mxCell id="A4NSrSyly75F6ZysKl9O-14" style="edgeStyle=orthogonalEdgeStyle;rounded=0;orthogonalLoop=1;jettySize=auto;html=1;" parent="1" source="A4NSrSyly75F6ZysKl9O-7" edge="1">
          <mxGeometry relative="1" as="geometry">
            <mxPoint x="520" y="330" as="targetPoint" />
            <Array as="points">
              <mxPoint x="471" y="370" />
              <mxPoint x="471" y="330" />
            </Array>
          </mxGeometry>
        </mxCell>
        <mxCell id="A4NSrSyly75F6ZysKl9O-7" value="" style="html=1;verticalLabelPosition=bottom;align=center;labelBackgroundColor=#ffffff;verticalAlign=top;strokeWidth=2;shadow=0;dashed=0;shape=mxgraph.ios7.icons.data;aspect=fixed;" parent="1" vertex="1">
          <mxGeometry x="325.98" y="330" width="65.98" height="80" as="geometry" />
        </mxCell>
        <mxCell id="A4NSrSyly75F6ZysKl9O-11" style="edgeStyle=orthogonalEdgeStyle;rounded=0;orthogonalLoop=1;jettySize=auto;html=1;endArrow=none;endFill=0;targetPerimeterSpacing=10;sourcePerimeterSpacing=10;" parent="1" source="A4NSrSyly75F6ZysKl9O-8" target="A4NSrSyly75F6ZysKl9O-4" edge="1">
          <mxGeometry relative="1" as="geometry" />
        </mxCell>
        <mxCell id="A4NSrSyly75F6ZysKl9O-12" style="edgeStyle=orthogonalEdgeStyle;rounded=0;orthogonalLoop=1;jettySize=auto;html=1;" parent="1" source="A4NSrSyly75F6ZysKl9O-8" edge="1">
          <mxGeometry relative="1" as="geometry">
            <mxPoint x="520" y="310" as="targetPoint" />
            <Array as="points">
              <mxPoint x="470" y="270" />
            </Array>
          </mxGeometry>
        </mxCell>
        <mxCell id="A4NSrSyly75F6ZysKl9O-8" value="&lt;b&gt;&lt;font style=&quot;font-size: 25px;&quot;&gt;ELT&lt;/font&gt;&lt;/b&gt;" style="text;html=1;strokeColor=default;fillColor=none;align=center;verticalAlign=middle;whiteSpace=wrap;rounded=0;dashed=1;dashPattern=8 8;" parent="1" vertex="1">
          <mxGeometry x="325.98" y="222" width="70" height="60" as="geometry" />
        </mxCell>
        <mxCell id="A4NSrSyly75F6ZysKl9O-17" style="edgeStyle=orthogonalEdgeStyle;rounded=0;orthogonalLoop=1;jettySize=auto;html=1;" parent="1" source="A4NSrSyly75F6ZysKl9O-15" edge="1">
          <mxGeometry relative="1" as="geometry">
            <mxPoint x="650" y="322" as="targetPoint" />
          </mxGeometry>
        </mxCell>
        <mxCell id="A4NSrSyly75F6ZysKl9O-15" value="" style="html=1;verticalLabelPosition=bottom;align=center;labelBackgroundColor=#ffffff;verticalAlign=top;strokeWidth=2;shadow=0;dashed=0;shape=mxgraph.ios7.icons.data;aspect=fixed;" parent="1" vertex="1">
          <mxGeometry x="530" y="282" width="65.98" height="80" as="geometry" />
        </mxCell>
        <mxCell id="A4NSrSyly75F6ZysKl9O-16" value="&lt;font style=&quot;font-size: 18px;&quot;&gt;&lt;b&gt;SQL&lt;/b&gt;&lt;/font&gt;" style="text;html=1;strokeColor=none;fillColor=default;align=center;verticalAlign=middle;whiteSpace=wrap;rounded=0;" parent="1" vertex="1">
          <mxGeometry x="570" y="340" width="40" height="30" as="geometry" />
        </mxCell>
        <mxCell id="A4NSrSyly75F6ZysKl9O-18" value="" style="shape=table;startSize=30;container=1;collapsible=0;childLayout=tableLayout;strokeColor=default;fontSize=16;" parent="1" vertex="1">
          <mxGeometry x="670" y="283" width="120" height="78" as="geometry" />
        </mxCell>
        <mxCell id="A4NSrSyly75F6ZysKl9O-19" value="" style="shape=tableRow;horizontal=0;startSize=0;swimlaneHead=0;swimlaneBody=0;strokeColor=inherit;top=0;left=0;bottom=0;right=0;collapsible=0;dropTarget=0;fillColor=none;points=[[0,0.5],[1,0.5]];portConstraint=eastwest;fontSize=16;" parent="A4NSrSyly75F6ZysKl9O-18" vertex="1">
          <mxGeometry y="30" width="120" height="17" as="geometry" />
        </mxCell>
        <mxCell id="A4NSrSyly75F6ZysKl9O-20" value="" style="shape=partialRectangle;html=1;whiteSpace=wrap;connectable=0;strokeColor=inherit;overflow=hidden;fillColor=none;top=0;left=0;bottom=0;right=0;pointerEvents=1;fontSize=16;" parent="A4NSrSyly75F6ZysKl9O-19" vertex="1">
          <mxGeometry width="40" height="17" as="geometry">
            <mxRectangle width="40" height="17" as="alternateBounds" />
          </mxGeometry>
        </mxCell>
        <mxCell id="A4NSrSyly75F6ZysKl9O-21" value="" style="shape=partialRectangle;html=1;whiteSpace=wrap;connectable=0;strokeColor=inherit;overflow=hidden;fillColor=none;top=0;left=0;bottom=0;right=0;pointerEvents=1;fontSize=16;" parent="A4NSrSyly75F6ZysKl9O-19" vertex="1">
          <mxGeometry x="40" width="40" height="17" as="geometry">
            <mxRectangle width="40" height="17" as="alternateBounds" />
          </mxGeometry>
        </mxCell>
        <mxCell id="A4NSrSyly75F6ZysKl9O-22" value="" style="shape=partialRectangle;html=1;whiteSpace=wrap;connectable=0;strokeColor=inherit;overflow=hidden;fillColor=none;top=0;left=0;bottom=0;right=0;pointerEvents=1;fontSize=16;" parent="A4NSrSyly75F6ZysKl9O-19" vertex="1">
          <mxGeometry x="80" width="40" height="17" as="geometry">
            <mxRectangle width="40" height="17" as="alternateBounds" />
          </mxGeometry>
        </mxCell>
        <mxCell id="A4NSrSyly75F6ZysKl9O-23" value="" style="shape=tableRow;horizontal=0;startSize=0;swimlaneHead=0;swimlaneBody=0;strokeColor=inherit;top=0;left=0;bottom=0;right=0;collapsible=0;dropTarget=0;fillColor=none;points=[[0,0.5],[1,0.5]];portConstraint=eastwest;fontSize=16;" parent="A4NSrSyly75F6ZysKl9O-18" vertex="1">
          <mxGeometry y="47" width="120" height="14" as="geometry" />
        </mxCell>
        <mxCell id="A4NSrSyly75F6ZysKl9O-24" value="" style="shape=partialRectangle;html=1;whiteSpace=wrap;connectable=0;strokeColor=inherit;overflow=hidden;fillColor=none;top=0;left=0;bottom=0;right=0;pointerEvents=1;fontSize=16;" parent="A4NSrSyly75F6ZysKl9O-23" vertex="1">
          <mxGeometry width="40" height="14" as="geometry">
            <mxRectangle width="40" height="14" as="alternateBounds" />
          </mxGeometry>
        </mxCell>
        <mxCell id="A4NSrSyly75F6ZysKl9O-25" value="" style="shape=partialRectangle;html=1;whiteSpace=wrap;connectable=0;strokeColor=inherit;overflow=hidden;fillColor=none;top=0;left=0;bottom=0;right=0;pointerEvents=1;fontSize=16;" parent="A4NSrSyly75F6ZysKl9O-23" vertex="1">
          <mxGeometry x="40" width="40" height="14" as="geometry">
            <mxRectangle width="40" height="14" as="alternateBounds" />
          </mxGeometry>
        </mxCell>
        <mxCell id="A4NSrSyly75F6ZysKl9O-26" value="" style="shape=partialRectangle;html=1;whiteSpace=wrap;connectable=0;strokeColor=inherit;overflow=hidden;fillColor=none;top=0;left=0;bottom=0;right=0;pointerEvents=1;fontSize=16;" parent="A4NSrSyly75F6ZysKl9O-23" vertex="1">
          <mxGeometry x="80" width="40" height="14" as="geometry">
            <mxRectangle width="40" height="14" as="alternateBounds" />
          </mxGeometry>
        </mxCell>
        <mxCell id="A4NSrSyly75F6ZysKl9O-27" value="" style="shape=tableRow;horizontal=0;startSize=0;swimlaneHead=0;swimlaneBody=0;strokeColor=inherit;top=0;left=0;bottom=0;right=0;collapsible=0;dropTarget=0;fillColor=none;points=[[0,0.5],[1,0.5]];portConstraint=eastwest;fontSize=16;" parent="A4NSrSyly75F6ZysKl9O-18" vertex="1">
          <mxGeometry y="61" width="120" height="17" as="geometry" />
        </mxCell>
        <mxCell id="A4NSrSyly75F6ZysKl9O-28" value="" style="shape=partialRectangle;html=1;whiteSpace=wrap;connectable=0;strokeColor=inherit;overflow=hidden;fillColor=none;top=0;left=0;bottom=0;right=0;pointerEvents=1;fontSize=16;" parent="A4NSrSyly75F6ZysKl9O-27" vertex="1">
          <mxGeometry width="40" height="17" as="geometry">
            <mxRectangle width="40" height="17" as="alternateBounds" />
          </mxGeometry>
        </mxCell>
        <mxCell id="A4NSrSyly75F6ZysKl9O-29" value="" style="shape=partialRectangle;html=1;whiteSpace=wrap;connectable=0;strokeColor=inherit;overflow=hidden;fillColor=none;top=0;left=0;bottom=0;right=0;pointerEvents=1;fontSize=16;" parent="A4NSrSyly75F6ZysKl9O-27" vertex="1">
          <mxGeometry x="40" width="40" height="17" as="geometry">
            <mxRectangle width="40" height="17" as="alternateBounds" />
          </mxGeometry>
        </mxCell>
        <mxCell id="A4NSrSyly75F6ZysKl9O-30" value="" style="shape=partialRectangle;html=1;whiteSpace=wrap;connectable=0;strokeColor=inherit;overflow=hidden;fillColor=none;top=0;left=0;bottom=0;right=0;pointerEvents=1;fontSize=16;" parent="A4NSrSyly75F6ZysKl9O-27" vertex="1">
          <mxGeometry x="80" width="40" height="17" as="geometry">
            <mxRectangle width="40" height="17" as="alternateBounds" />
          </mxGeometry>
        </mxCell>
      </root>
    </mxGraphModel>
  </diagram>
</mxfile>
